<?xml version="1.0" encoding="utf-8"?>
<!-- Generator: Adobe Illustrator 18.0.0, SVG Export Plug-In . SVG Version: 6.00 Build 0)  -->
<!DOCTYPE svg PUBLIC "-//W3C//DTD SVG 1.1//EN" "http://www.w3.org/Graphics/SVG/1.1/DTD/svg11.dtd">
<svg version="1.1" id="Layer_1" xmlns="http://www.w3.org/2000/svg" xmlns:xlink="http://www.w3.org/1999/xlink" x="0px" y="0px"
	 viewBox="0 0 1920 1280" enable-background="new 0 0 1920 1280" xml:space="preserve">
<g>
	<path fill="#FCBC59" d="M1425,552.2L1425,552.2c-1,0-2,0.1-3,0.1V452.2c0-22.2-18.1-40.2-40.3-40.2H495.1
		c-22.2,0-40.1,18-40.1,40.2v375.7c0,22.2,18,41.2,40.1,41.2h886.6c22.2,0,40.3-19,40.3-41.2V719.6c1,0.1,1.9,0.1,3,0.1l0,0
		c22.2,0,40-18,40-40.1v-87.3C1465,570.2,1447.1,552.2,1425,552.2z"/>
</g>
</svg>
